HIERARCHY
ROOT Hips
{
	OFFSET 0.000000 0.000000 0.000000
	CHANNELS 6 Xposition Yposition Zposition Xrotation Yrotation Zrotation
	JOINT LeftUpLeg_virtual
	{
		OFFSET 0.000000 0.000000 0.000000
		CHANNELS 3 Xrotation Yrotation Zrotation
		JOINT LeftUpLeg
		{
			OFFSET 15.427100 -6.655098 0.678600
			CHANNELS 3 Xrotation Yrotation Zrotation
			JOINT LeftLeg
			{
				OFFSET 4.081073 -39.591068 13.024000
				CHANNELS 3 Xrotation Yrotation Zrotation
				JOINT LeftFoot
				{
					OFFSET -4.081074 -37.707932 -15.979700
					CHANNELS 3 Xrotation Yrotation Zrotation
					JOINT LeftToeBase
					{
						OFFSET 5.346399 -15.068900 20.645000
						CHANNELS 3 Xrotation Yrotation Zrotation
						JOINT LeftToe_End
						{
							OFFSET 2.754700 0.931300 11.300900
							CHANNELS 3 Xrotation Yrotation Zrotation
							End Site
							{
								OFFSET 0 0 0
							}
						}
					}
				}
			}
		}
	}
	JOINT RightUpLeg_virtual
	{
		OFFSET 0.000000 0.000000 0.000000
		CHANNELS 3 Xrotation Yrotation Zrotation
		JOINT RightUpLeg
		{
			OFFSET -15.569500 -6.655098 0.678600
			CHANNELS 3 Xrotation Yrotation Zrotation
			JOINT RightLeg
			{
				OFFSET -4.081825 -39.591045 13.023800
				CHANNELS 3 Xrotation Yrotation Zrotation
				JOINT RightFoot
				{
					OFFSET 4.081824 -37.707954 -15.979600
					CHANNELS 3 Xrotation Yrotation Zrotation
					JOINT RightToeBase
					{
						OFFSET -5.346400 -15.068900 20.645000
						CHANNELS 3 Xrotation Yrotation Zrotation
						JOINT RightToe_End
						{
							OFFSET -2.754700 0.931300 11.300900
							CHANNELS 3 Xrotation Yrotation Zrotation
							End Site
							{
								OFFSET 0 0 0
							}
						}
					}
				}
			}
		}
	}
	JOINT Spine_virtual
	{
		OFFSET 0.000000 0.000000 0.000000
		CHANNELS 3 Xrotation Yrotation Zrotation
		JOINT Spine
		{
			OFFSET -0.279200 12.230698 -2.892100
			CHANNELS 3 Xrotation Yrotation Zrotation
			JOINT Spine1
			{
				OFFSET -0.232667 10.192268 -1.242267
				CHANNELS 3 Xrotation Yrotation Zrotation
				JOINT Spine1_split
				{
					OFFSET -0.232667 10.192268 -1.242267
					CHANNELS 3 Xrotation Yrotation Zrotation
					JOINT Spine2
					{
						OFFSET -0.232667 10.192268 -1.242267
						CHANNELS 3 Xrotation Yrotation Zrotation
						JOINT Neck_virtual
						{
							OFFSET 0.000000 0.000000 0.000000
							CHANNELS 3 Xrotation Yrotation Zrotation
							JOINT Neck
							{
								OFFSET -0.418800 17.814194 8.416900
								CHANNELS 3 Xrotation Yrotation Zrotation
								JOINT Head
								{
									OFFSET 0.000000 7.031097 3.806800
									CHANNELS 3 Xrotation Yrotation Zrotation
									JOINT HeadTop_End
									{
										OFFSET 0.000000 24.646606 12.978600
										CHANNELS 3 Xrotation Yrotation Zrotation
										End Site
										{
											OFFSET 0 0 0
										}
									}
								}
							}
						}
						JOINT LeftShoulder_virtual
						{
							OFFSET 0.000000 0.000000 0.000000
							CHANNELS 3 Xrotation Yrotation Zrotation
							JOINT LeftShoulder
							{
								OFFSET 8.476499 7.247704 -3.868750
								CHANNELS 3 Xrotation Yrotation Zrotation
								JOINT LeftShoulder_split
								{
									OFFSET 8.476499 7.247704 -3.868750
									CHANNELS 3 Xrotation Yrotation Zrotation
									JOINT LeftArm
									{
										OFFSET 9.308998 -2.777710 0.208600
										CHANNELS 3 Xrotation Yrotation Zrotation
										JOINT LeftForeArm
										{
											OFFSET 29.972298 0.000000 0.000000
											CHANNELS 3 Xrotation Yrotation Zrotation
											JOINT LeftHand
											{
												OFFSET 26.026505 0.000000 0.000000
												CHANNELS 3 Xrotation Yrotation Zrotation
												End Site
												{
													OFFSET 0 0 0
												}
											}
										}
									}
								}
							}
						}
						JOINT RightShoulder_virtual
						{
							OFFSET 0.000000 0.000000 0.000000
							CHANNELS 3 Xrotation Yrotation Zrotation
							JOINT RightShoulder
							{
								OFFSET -7.570500 7.247704 -3.868750
								CHANNELS 3 Xrotation Yrotation Zrotation
								JOINT RightShoulder_split
								{
									OFFSET -7.570500 7.247704 -3.868750
									CHANNELS 3 Xrotation Yrotation Zrotation
									JOINT RightArm
									{
										OFFSET -9.308998 -2.777710 0.208500
										CHANNELS 3 Xrotation Yrotation Zrotation
										JOINT RightForeArm
										{
											OFFSET -29.972300 0.000000 0.000000
											CHANNELS 3 Xrotation Yrotation Zrotation
											JOINT RightHand
											{
												OFFSET -26.026505 0.000000 0.000000
												CHANNELS 3 Xrotation Yrotation Zrotation
												End Site
												{
													OFFSET 0 0 0
												}
											}
										}
									}
								}
							}
						}
					}
				}
			}
		}
	}
}
MOTION
Frames: 5
Frame Time: 0.03333333
-9.221743 121.468315 -1.478462 0.000000 0.000000 0.000000 -18.123997 19.128274 3.118727 -80.446835 19.261386 25.383947 94.561756 -15.265372 1.435710 -9.428543 6.393952 11.737383 15.449464 -2.276648 -6.176005 0.000000 0.000000 0.000000 -16.285831 10.449095 1.306912 -84.715642 -3.533770 -7.023603 92.312493 -2.370317 3.896975 -13.851940 0.562517 21.367757 -19.098928 -3.202420 -25.930791 0.000000 0.000000 0.000000 -5.178876 14.198695 -1.207862 1.485681 8.623275 6.791921 18.385942 2.697440 2.286012 0.034828 -1.332661 0.203613 0.000000 0.000000 0.000000 20.140107 5.028521 1.543216 2.975934 16.430737 -14.375035 -1.835971 -56.352851 -4.228301 0.000000 0.000000 0.000000 21.979569 2.307112 3.154983 -1.673896 -5.294080 19.386817 2.001427 2.162071 -7.736513 -38.559700 -41.059040 17.644209 -24.132932 -5.544828 -11.816109 0.000000 0.000000 0.000000 21.079454 2.778470 2.974977 -0.570871 17.610062 -30.353053 4.417608 -3.823998 3.809801 -42.114284 19.040763 -20.848910 -36.954598 39.013149 22.817217 0.000000 0.000000 0.000000 
-8.265567 120.378738 -1.515198 0.000000 0.000000 0.000000 -18.129672 18.854879 3.262462 -81.219958 18.129940 25.120526 93.052612 -15.579677 0.380446 -9.185959 5.616585 9.995628 14.918788 -2.204981 -5.864276 0.000000 0.000000 0.000000 -17.581112 11.390566 1.681309 -84.622328 -3.955779 -9.354764 92.244963 -3.292110 4.887296 -16.605233 0.228893 18.256134 -15.397914 -3.616167 -26.444503 0.000000 0.000000 0.000000 -7.472796 13.729928 -1.093431 1.315833 8.471624 6.883002 18.566198 2.355274 2.326301 0.186261 -0.816685 0.222662 0.000000 0.000000 0.000000 20.152832 4.619975 1.661654 3.591629 16.151994 -13.590149 -2.743177 -55.073977 -3.680883 0.000000 0.000000 0.000000 21.822828 1.973688 3.236258 -1.574239 -5.990104 20.007861 -0.312815 0.974389 -6.776150 -39.752568 -39.708316 18.797140 -23.159281 -3.377982 -11.120416 0.000000 0.000000 0.000000 20.697013 2.400507 3.055484 0.251859 19.847934 -29.380301 3.557043 -4.059344 2.407599 -45.620111 19.565637 -17.999526 -37.804359 39.661850 23.053753 0.000000 0.000000 0.000000 
-7.253982 119.576820 -1.229519 0.000000 0.000000 0.000000 -18.168023 18.909348 3.362809 -82.552719 16.575240 26.407036 92.780818 -16.250839 -0.330252 -6.648086 3.852569 7.815787 13.119437 -2.181788 -4.595874 0.000000 0.000000 0.000000 -18.910594 12.751681 2.088659 -85.156073 -3.340217 -12.568267 93.104986 -2.953547 5.754624 -15.671872 0.780350 15.385583 -13.155720 -3.744125 -26.400508 0.000000 0.000000 0.000000 -9.223672 13.961853 -1.128021 1.392076 7.782159 6.170960 18.367321 1.479111 2.076423 0.492351 -0.468846 0.109586 0.000000 0.000000 0.000000 19.487247 3.922427 1.566024 2.621458 16.539127 -11.032304 -6.219335 -55.134998 -2.587401 0.000000 0.000000 0.000000 20.776566 1.194007 3.038696 -0.743055 -7.634633 22.910010 -1.226927 -0.458334 -5.083869 -41.645111 -38.174132 17.284624 -21.907478 -3.601034 -10.439641 0.000000 0.000000 0.000000 19.295057 1.647686 2.945291 1.252662 22.675514 -27.619735 3.844551 -5.408964 1.813712 -50.070778 22.153637 -14.262315 -38.151101 39.225336 22.494574 0.000000 0.000000 0.000000 
-6.198064 119.431107 -0.773514 0.000000 0.000000 0.000000 -18.501282 18.955756 3.300771 -83.797153 14.566927 28.781536 93.245032 -17.178281 -0.641573 -2.789793 1.404796 6.355370 11.282621 -2.357749 -2.939341 0.000000 0.000000 0.000000 -19.974656 14.541956 2.336005 -85.916034 -1.457250 -15.767037 93.615939 -1.108138 5.858910 -10.796259 1.788946 12.851517 -11.464844 -3.958091 -25.408659 0.000000 0.000000 0.000000 -10.086546 14.034664 -1.561875 1.705046 6.823978 5.064123 18.018507 0.281323 1.493931 0.627120 -0.228329 -0.137469 0.000000 0.000000 0.000000 18.522718 3.039103 1.234861 0.142622 17.289628 -7.478739 -10.667159 -56.036549 -1.419482 0.000000 0.000000 0.000000 19.393906 0.132461 2.487568 0.690503 -9.420324 26.972694 -2.066726 -1.229667 -3.241792 -43.716827 -35.969012 13.871766 -20.230754 -6.697411 -9.734697 0.000000 0.000000 0.000000 17.486071 0.661284 2.559070 2.194115 25.730170 -25.423395 5.978870 -6.559159 1.586103 -54.819880 25.713963 -10.205763 -37.923946 38.122749 21.344283 0.000000 0.000000 0.000000 
-4.982210 120.026505 -0.460876 0.000000 0.000000 0.000000 -19.502593 18.575070 2.975547 -83.684133 12.144573 31.171604 93.433976 -18.251305 -0.628739 1.797920 -1.336095 5.936928 9.618846 -2.658426 -1.322731 0.000000 0.000000 0.000000 -20.892360 15.221560 2.037198 -86.612317 1.391925 -18.108438 93.283104 1.422701 5.470339 -2.787085 2.635757 9.844212 -8.398640 -4.688666 -23.369764 0.000000 0.000000 0.000000 -10.783851 13.129582 -2.263414 2.245254 5.882173 3.988986 17.851599 -1.069827 0.697258 0.583267 -0.116758 -0.214631 0.000000 0.000000 0.000000 17.808750 2.080656 0.707332 -3.014481 17.842467 -4.023773 -13.372015 -56.786036 0.002248 0.000000 0.000000 0.000000 18.403009 -0.944174 1.619199 2.215015 -10.242907 30.498574 -2.446078 -2.398896 -1.031165 -46.143102 -32.422635 9.331796 -17.439985 -12.059799 -8.314810 0.000000 0.000000 0.000000 16.226332 -0.402049 1.922187 3.116244 28.885912 -23.701287 9.486361 -6.195944 1.083097 -59.258107 29.327866 -6.580375 -37.064974 36.301038 19.736241 0.000000 0.000000 0.000000 
